HIERARCHY
ROOT RootJoint
{
    OFFSET   0.000000   0.000000   0.000000
    CHANNELS 6 Xposition Yposition Zposition Xrotation Yrotation Zrotation
    JOINT pelvis_lowerback
    {
        OFFSET   0.000000   0.093605   0.000000
        CHANNELS 3 Xrotation Yrotation Zrotation
        JOINT lowerback_torso
        {
            OFFSET   0.000000   0.100000   0.000000
            CHANNELS 3 Xrotation Yrotation Zrotation
            JOINT torso_head
            {
                OFFSET   0.000000   0.282350   0.000000
                CHANNELS 3 Xrotation Yrotation Zrotation
                End Site
                {
                    OFFSET   0.000000   0.192650   0.000000
                }
            }
            JOINT rTorso_Clavicle
            {
                OFFSET  -0.001000   0.157500   0.000000
                CHANNELS 3 Xrotation Yrotation Zrotation
                JOINT rShoulder
                {
                    OFFSET  -0.117647   0.000000   0.000000
                    CHANNELS 3 Xrotation Yrotation Zrotation
                    JOINT rElbow
                    {
                        OFFSET  -0.245000   0.000000   0.000000
                        CHANNELS 3 Xrotation Yrotation Zrotation
                        JOINT rWrist
                        {
                            OFFSET  -0.240000   0.000000   0.000000
                            CHANNELS 3 Xrotation Yrotation Zrotation
                            End Site
                            {
                                OFFSET  -0.116353  -0.002500   0.000000
                            }
                        }
                    }
                }
            }
            JOINT lTorso_Clavicle
            {
                OFFSET   0.001000   0.157500   0.000000
                CHANNELS 3 Xrotation Yrotation Zrotation
                JOINT lShoulder
                {
                    OFFSET   0.117647   0.000000   0.000000
                    CHANNELS 3 Xrotation Yrotation Zrotation
                    JOINT lElbow
                    {
                        OFFSET   0.245000   0.000000   0.000000
                        CHANNELS 3 Xrotation Yrotation Zrotation
                        JOINT lWrist
                        {
                            OFFSET   0.240000   0.000000   0.000000
                            CHANNELS 3 Xrotation Yrotation Zrotation
                            End Site
                            {
                                OFFSET   0.116353  -0.002500   0.000000
                            }
                        }
                    }
                }
            }
        }
    }
    JOINT rHip
    {
        OFFSET  -0.100000  -0.051395   0.000000
        CHANNELS 3 Xrotation Yrotation Zrotation
        JOINT rKnee
        {
            OFFSET   0.000000  -0.410000   0.000000
            CHANNELS 3 Xrotation Yrotation Zrotation
            JOINT rAnkle
            {
                OFFSET   0.000000  -0.390000   0.000000
                CHANNELS 3 Xrotation Yrotation Zrotation
                JOINT rToeJoint
                {
                    OFFSET   0.000000  -0.050000   0.130000
                    CHANNELS 3 Xrotation Yrotation Zrotation
                    End Site
                    {
                        OFFSET  -0.010000   0.002000   0.060000
                    }
                }
            }
        }
    }
    JOINT lHip
    {
        OFFSET   0.100000  -0.051395   0.000000
        CHANNELS 3 Xrotation Yrotation Zrotation
        JOINT lKnee
        {
            OFFSET   0.000000  -0.410000   0.000000
            CHANNELS 3 Xrotation Yrotation Zrotation
            JOINT lAnkle
            {
                OFFSET   0.000000  -0.390000   0.000000
                CHANNELS 3 Xrotation Yrotation Zrotation
                JOINT lToeJoint
                {
                    OFFSET   0.000000  -0.050000   0.130000
                    CHANNELS 3 Xrotation Yrotation Zrotation
                    End Site
                    {
                        OFFSET   0.010000   0.002000   0.060000
                    }
                }
            }
        }
    }
}
MOTION
Frames: 17
Frame Time:   0.008333
 -2.376719   0.925631   3.975860   0.000000   0.000000   0.000000   0.000000   0.000000   0.000000   0.000000   0.000000   0.000000   0.000000   0.000000   0.000000   0.000000   0.000000   0.000000   0.000000   0.000000   0.000000   0.000000   0.000000   0.000000   0.000000   0.000000   0.000000   0.000000   0.000000   0.000000   0.000000   0.000000   0.000000   0.000000   0.000000   0.000000   0.000000   0.000000   0.000000   0.000000   0.000000   0.000000   0.000000   0.000000   0.000000   0.000000   0.000000   0.000000   0.000000   0.000000   0.000000   0.000000   0.000000   0.000000   0.000000   0.000000   0.000000   0.000000   0.000000   0.000000   0.000000   0.000000   0.000000
 -2.376686   0.926310   3.975906   0.126858  -0.076251   0.072780  -0.299378   0.100324  -0.185193   0.238686  -0.159159   0.101630  -0.059485   0.119894   0.063455   0.257910  -0.606351   0.548950   0.179879  -0.120045   2.041520   0.082680   3.647151  -0.018079   0.009368  -1.198094  -3.294309   0.237326   0.529642  -0.458441   0.698683   0.654319  -2.030321   0.081052  -3.670282   0.034140   0.014100   0.982724   3.189068  -0.400655   0.100161  -0.333727   0.779919   0.001781   0.000143  -0.734675  -0.070637   0.188498   0.046354   0.000029  -0.000019  -0.513209  -0.103255   0.156776   1.361952  -0.002752  -0.002099  -1.161825   0.341343   0.032161   0.171384  -0.000387   0.000239
 -2.376627   0.927437   3.976139   0.185666  -0.233453   0.142060  -0.609934   0.220569  -0.364610   0.486605  -0.290551   0.211652  -0.082760   0.232563   0.123615   0.509385  -1.145513   1.871867   0.341791  -0.143803   4.704769   0.199556   7.406583  -0.029909   0.057017  -1.431902  -5.865569   0.477373   1.030618  -1.660525   1.395066   1.218698  -4.669030   0.195978  -7.432441   0.060559   0.081782   1.099617   5.697117  -0.739651   0.200021  -0.873117   1.597711   0.004789  -0.000415  -1.420579  -0.141117   0.362787   0.056130   0.000049  -0.000026  -0.913907  -0.200676   0.512241   2.810861  -0.007719  -0.004624  -2.244059   0.665624   0.071220   0.287571  -0.000777   0.000264
 -2.376534   0.928566   3.976488   0.227121  -0.431143   0.202874  -0.934314   0.341574  -0.522485   0.699547  -0.402223   0.326181  -0.106009   0.337170   0.177744   0.758897  -1.600859   3.659434   0.494108  -0.121287   7.777747   0.324229  11.180861  -0.035933   0.110483  -1.399444  -7.504955   0.716075   1.464048  -3.315057   2.101363   1.707994  -7.713217   0.319298 -11.204376   0.080327   0.153372   0.994333   7.313858  -1.050012   0.292765  -1.574333   2.375055   0.008172  -0.001302  -2.060305  -0.211939   0.523119   0.059425   0.000053  -0.000026  -1.235120  -0.293312   1.032446   4.206912  -0.013523  -0.006593  -3.252236   0.970053   0.114952   0.392944  -0.001196   0.000233
 -2.376456   0.929350   3.976892   0.262622  -0.643515   0.259260  -1.262967   0.456670  -0.666322   0.878553  -0.502470   0.429391  -0.134641   0.434282   0.232098   1.014071  -1.997097   5.716628   0.646323  -0.073862  11.135334   0.442700  14.953390  -0.038082   0.149930  -1.319149  -8.412032   0.959683   1.846133  -5.278560   2.791719   2.113090 -10.873944   0.434720 -14.974685   0.094978   0.209021   0.850705   8.151663  -1.342958   0.380778  -2.402797   3.101368   0.011409  -0.002226  -2.657858  -0.282310   0.670463   0.055759   0.000022  -0.000014  -1.498541  -0.382218   1.684683   5.528768  -0.019344  -0.007713  -4.193221   1.255406   0.161983   0.484766  -0.001564   0.000189
 -2.376424   0.929528   3.977306   0.293465  -0.858112   0.312314  -1.586228   0.562328  -0.801601   1.033865  -0.597301   0.519988  -0.167730   0.524710   0.284026   1.279588  -2.350204   7.908674   0.804002  -0.012194  14.688314   0.547887  18.717346  -0.037907   0.166463  -1.270258  -8.802034   1.209771   2.185713  -7.401694   3.467547   2.442981 -14.040820   0.535053 -18.740493   0.106643   0.243193   0.724849   8.447236  -1.622546   0.466565  -3.327321   3.777925   0.014234  -0.003058  -3.216063  -0.351390   0.805932   0.047060  -0.000038   0.000005  -1.716464  -0.468131   2.442054   6.774766  -0.024676  -0.008036  -5.071903   1.522656   0.211317   0.564359  -0.001852   0.000150
 -2.376422   0.928895   3.977689   0.319224  -1.070122   0.360319  -1.895802   0.657182  -0.925123   1.176295  -0.689483   0.610677  -0.204012   0.609015   0.328860   1.561068  -2.666765  10.182761   0.967216   0.056325  18.258931   0.635028  22.471182  -0.036550   0.157123  -1.279846  -8.786162   1.466429   2.487467  -9.588969   4.128135   2.705225 -17.148929   0.617555 -22.501512   0.116856   0.257279   0.633155   8.378615  -1.891409   0.551867  -4.322532   4.407674   0.016541  -0.003759  -3.737438  -0.418539   0.930610   0.035096  -0.000117   0.000027  -1.897741  -0.551751   3.279971   7.947181  -0.029197  -0.007744  -5.892555   1.772759   0.262183   0.633465  -0.002051   0.000119
 -2.376412   0.926842   3.977794   0.425759  -1.393066   0.330228  -2.263003   0.754281  -0.899718   1.369185  -0.649527   0.672731  -0.389782   0.572595   0.302082   1.893076  -2.771943  12.016177   1.374974   0.060645  21.397454   0.681896  26.209107  -0.048295   0.046689  -1.362461  -7.697284   1.885246   2.744341 -11.194686   4.602374   2.815481 -20.200543   0.663980 -26.267140   0.126290   0.198580   0.549769   7.407291  -2.426431   0.449760  -5.151926   5.427160   0.020599  -0.008015  -4.112544  -0.476632   1.346633   0.064488   0.000024  -0.000115  -1.950619  -0.317625   4.149584   8.223750  -0.025395  -0.006009  -6.243666   2.147640   0.249952   0.776299  -0.002654   0.000507
 -2.376400   0.923534   3.977675   0.536731  -1.641926   0.290957  -2.575060   0.819423  -0.856968   1.560696  -0.616952   0.737163  -0.574625   0.533650   0.276234   2.197879  -2.829062  13.558846   1.749261   0.101860  24.209935   0.701988  29.954704  -0.058762  -0.048534  -1.450991  -6.675513   2.273530   2.941384 -12.538903   5.043083   2.875791 -22.948713   0.684961 -30.046789   0.134095   0.148614   0.426299   6.483102  -2.943401   0.343347  -5.899971   6.421977   0.022945  -0.010845  -4.456427  -0.535515   1.734516   0.116290   0.000204  -0.000308  -2.051270  -0.093302   4.963362   8.360778  -0.021236  -0.004650  -6.575550   2.500174   0.241705   0.918806  -0.003046   0.000872
 -2.376386   0.919087   3.977413   0.642943  -1.838199   0.253309  -2.840913   0.876746  -0.812731   1.753279  -0.588912   0.800131  -0.744826   0.496989   0.254076   2.471251  -2.855394  14.883979   2.086276   0.171722  26.753312   0.704588  33.710768  -0.068122  -0.125383  -1.496155  -5.852138   2.627253   3.094457 -13.684989   5.447339   2.900387 -25.435121   0.688768 -33.836560   0.139993   0.112202   0.260316   5.739833  -3.414675   0.249954  -6.581879   7.357628   0.023832  -0.012386  -4.776621  -0.592223   2.096144   0.167051   0.000324  -0.000433  -2.197559   0.113711   5.710877   8.451859  -0.017544  -0.003594  -6.887443   2.829130   0.236069   1.046916  -0.003189   0.001132
 -2.376371   0.913587   3.977068   0.744046  -1.999036   0.218706  -3.071495   0.935231  -0.769794   1.942962  -0.558237   0.859803  -0.900268   0.462865   0.234428   2.714757  -2.858408  16.037323   2.388275   0.262628  29.067487   0.695830  37.475804  -0.076763  -0.186813  -1.494323  -5.197012   2.950122   3.217988 -14.674332   5.818017   2.901184 -27.697158   0.681065 -37.633211   0.144089   0.085482   0.063576   5.154202  -3.838731   0.167700  -7.201941   8.234720   0.023674  -0.013051  -5.075183  -0.646498   2.433385   0.214584   0.000392  -0.000503  -2.377215   0.303740   6.393255   8.516283  -0.014390  -0.002781  -7.179606   3.135889   0.232472   1.163934  -0.003172   0.001299
 -2.376401   0.913353   3.977028   0.728154  -2.186145   0.254816  -3.258601   1.019829  -0.796671   2.174729  -0.505111   0.900656  -1.033237   0.431873   0.216838   2.942799  -2.825204  17.422274   2.673726   0.358172  31.298019   0.693366  41.184797  -0.084761  -0.250522  -1.648160  -4.686737   3.248199   3.314165 -15.897390   6.166296   2.888694 -29.875730   0.680629 -41.371878   0.147902   0.049875   0.064026   4.720426  -4.318232   0.255263  -7.297009   9.153824   0.019124  -0.012186  -5.451553  -0.466722   3.134655   0.068220   0.001129  -0.000409  -2.573692   0.372109   6.393626   9.019610  -0.011719  -0.002502  -7.401713   3.225924  -0.163820   0.996508  -0.003071   0.001044
 -2.376552   0.913182   3.977180   0.715335  -2.222339   0.296552  -3.451950   1.053305  -0.825283   2.375932  -0.488194   0.923813  -1.159363   0.401304   0.196880   3.183133  -2.799597  18.563930   2.959627   0.468678  33.388437   0.683019  44.931557  -0.094155  -0.315628  -1.724089  -4.035467   3.534413   3.384765 -16.883607   6.503462   2.836949 -31.912444   0.663184 -44.942247   0.147715   0.022691  -0.121616   4.125190  -4.668133   0.274278  -7.365215   9.898895   0.015273  -0.010443  -5.824765  -0.405595   3.465337  -0.001062   0.001089  -0.000319  -2.713922   0.549430   6.392588   9.336384  -0.009424  -0.001499  -7.540468   3.483734  -0.200252   0.929457  -0.002461   0.000588
 -2.376566   0.913151   3.977146   0.776776  -2.265044   0.342316  -3.548737   1.074616  -0.853967   2.475323  -0.401002   0.989094  -1.313767   0.290758   0.153111   3.499010  -2.627135  19.210274   3.466019   0.748359  34.912882   0.657129  48.532246  -0.125815  -0.395515  -1.629294  -2.915914   3.929334   3.362282 -17.469217   6.843080   2.727530 -33.634603   0.635507 -48.656512   0.156176  -0.062206  -0.220806   3.107678  -4.952690   0.133077  -7.453548  10.278126   0.012189  -0.009180  -5.978370  -0.468672   3.662338  -0.021357   0.000900  -0.000204  -2.844410   0.794857   6.382866   9.440786  -0.007539  -0.000992  -7.604751   3.732660  -0.194037   1.014910  -0.001985   0.000816
 -2.376534   0.913210   3.976929   0.911094  -2.311638   0.393412  -3.614281   1.105005  -0.870657   2.546002  -0.305828   1.044854  -1.459105   0.185820   0.116896   3.730869  -2.439012  19.522556   3.881548   1.037866  36.136054   0.615759  51.920576  -0.150327  -0.438864  -1.390067  -2.008522   4.260259   3.320907 -17.781902   7.119995   2.608820 -35.086610   0.591552 -52.156874   0.159915  -0.120854  -0.499039   2.279531  -5.256011  -0.003336  -7.543742  10.523432   0.009736  -0.007852  -6.134046  -0.531173   3.838685   0.207574   0.000429  -0.000710  -3.007694   1.028231   6.364196   9.447160  -0.006031  -0.000783  -7.695604   3.968084  -0.186542   1.099818  -0.001596   0.000969
 -2.376505   0.913325   3.976601   1.091489  -2.351607   0.445751  -3.651407   1.135990  -0.882216   2.602820  -0.213934   1.090462  -1.589451   0.088242   0.085723   3.893872  -2.257604  19.611692   4.217556   1.319046  37.135184   0.567850  55.101425  -0.168189  -0.464798  -1.054760  -1.409149   4.536913   3.276478 -17.900700   7.342711   2.498054 -36.320325   0.540017 -55.437068   0.159976  -0.165217  -0.855924   1.719789  -5.568509  -0.127710  -7.628600  10.687509   0.007780  -0.006581  -6.300877  -0.591034   4.000083   0.420229   0.000090  -0.001018  -3.191629   1.244131   6.343056   9.390522  -0.004827  -0.000717  -7.802776   4.188696  -0.177167   1.175127  -0.001280   0.001036
 -2.376499   0.913471   3.976224   1.300915  -2.382236   0.497296  -3.664958   1.164832  -0.892492   2.653876  -0.128088   1.127863  -1.705922  -0.002642   0.057510   4.009343  -2.091787  19.550644   4.493180   1.582165  37.965081   0.519165  58.081240  -0.180956  -0.480298  -0.667174  -1.061465   4.772898   3.237714 -17.882819   7.523744   2.401566 -37.380640   0.486821 -58.505234   0.157607  -0.200643  -1.242179   1.384376  -5.882350  -0.241108  -7.705692  10.797123   0.006218  -0.005439  -6.471358  -0.648002   4.148676   0.613128  -0.000148  -0.001171  -3.387017   1.443653   6.322729   9.292413  -0.003866  -0.000721  -7.918638   4.395045  -0.166232   1.242278  -0.001026   0.001048
